<svg id="Слой_1" xmlns="http://www.w3.org/2000/svg" viewBox="0 0 108 108"><style>.st0,.st1,.st2{fill-rule:evenodd;clip-rule:evenodd;fill:url(#Vector_2_1_);fill-opacity:.25}.st1,.st2{fill:url(#Vector_3_1_)}.st2{fill:url(#Vector_1_1_)}</style><radialGradient id="Vector_2_1_" cx="41.936" cy="69.019" r="1" gradientTransform="matrix(53.5 -50.00002 -37.55597 -40.18488 402.305 4924.572)" gradientUnits="userSpaceOnUse"><stop offset="0" stop-color="#801AB3" stop-opacity="0"/><stop offset="1" stop-color="#4C4CFF"/></radialGradient><path id="Vector_2" class="st0" d="M104.24 42.683a23.341 23.341 0 0 1 0 23.094L88.897 92.683c-4.075 7.145-11.605 11.547-19.755 11.547H38.453c-8.15 0-15.68-4.402-19.756-11.547L3.353 65.777a23.342 23.342 0 0 1 0-23.094l15.344-26.906C22.772 8.63 30.303 4.23 38.453 4.23H69.14c8.15 0 15.68 4.401 19.755 11.547l15.345 26.906z"/><radialGradient id="Vector_3_1_" cx="42.038" cy="68.999" r="1" gradientTransform="matrix(48.99995 -51.00002 -38.36417 -36.85964 641.765 4741.456)" gradientUnits="userSpaceOnUse"><stop offset="0" stop-color="#801AB3" stop-opacity="0"/><stop offset="1" stop-color="#4C4CFF"/></radialGradient><path id="Vector_3" class="st1" d="M9.891 40.617c-5.822 8.117-5.822 19.108 0 27.225l19.967 27.84c5.822 8.117 16.141 11.513 25.561 8.413L87.727 93.46c9.42-3.1 15.798-11.993 15.798-22.026v-34.41c0-10.034-6.378-18.926-15.798-22.027L55.419 4.365c-9.42-3.1-19.739.296-25.56 8.413L9.89 40.618z"/><radialGradient id="Vector_1_1_" cx="42.046" cy="67.161" r="1" gradientTransform="matrix(-34.00015 32.66654 24.57298 25.57617 -166.957 -3036.508)" gradientUnits="userSpaceOnUse"><stop offset="0" stop-color="#801AB3" stop-opacity="0"/><stop offset="1" stop-color="#4C4CFF" stop-opacity="0.5"/></radialGradient><path id="Vector_1" class="st2" d="M44.722 24.959a15.602 15.602 0 0 1 18.15 0l18.56 13.311c5.41 3.882 7.675 10.761 5.608 17.041L79.951 76.85c-2.067 6.28-7.995 10.531-14.684 10.531h-22.94c-6.69 0-12.617-4.251-14.684-10.531l-7.09-21.539c-2.066-6.28.198-13.16 5.61-17.04l18.559-13.312z"/></svg>